# xmcd CD database file
#
# Track frame offsets:
#	150
#	18817
#	41393
#	64012
#	82886
#
# Disc length: 1383 seconds
#
# Revision: 0
# Processed by: cddbd v1.5.2PL0 Copyright (c) Steve Scherf et al.
# Submitted via: CDex 1.70
#
DISCID=2b056505
DTITLE=Lonestar Rebels - Livin' Wild and Loud
DYEAR=2017
DGENRE=Country
TTITLE0=Take Me Home Tonight
TTITLE1=Six Flags Over Texas
TTITLE2=Restless Country Girl
TTITLE3=Valentine
TTITLE4=All Alone
EXTD=YEAR: 2017
EXTT0=
EXTT1=
EXTT2=
EXTT3=
EXTT4=
PLAYORDER=
